<svg xmlns="http://www.w3.org/2000/svg" viewBox="0 0 1024 1024" fill="none">
  <defs>
    <linearGradient id="bg" x1="128" y1="96" x2="896" y2="928" gradientUnits="userSpaceOnUse">
      <stop offset="0" stop-color="#1b2c48"/>
      <stop offset="0.52" stop-color="#101826"/>
      <stop offset="1" stop-color="#080b12"/>
    </linearGradient>
    <radialGradient id="glow" cx="0" cy="0" r="1" gradientUnits="userSpaceOnUse" gradientTransform="translate(284 248) rotate(45) scale(456 416)">
      <stop offset="0" stop-color="#67d7ff" stop-opacity="0.34"/>
      <stop offset="0.48" stop-color="#3b82f6" stop-opacity="0.12"/>
      <stop offset="1" stop-color="#3b82f6" stop-opacity="0"/>
    </radialGradient>
    <linearGradient id="mark" x1="232" y1="208" x2="792" y2="832" gradientUnits="userSpaceOnUse">
      <stop offset="0" stop-color="#8df2ff"/>
      <stop offset="0.38" stop-color="#5fc7ff"/>
      <stop offset="0.72" stop-color="#487df7"/>
      <stop offset="1" stop-color="#24468b"/>
    </linearGradient>
  </defs>
  <rect width="1024" height="1024" rx="220" fill="url(#bg)"/>
  <rect width="1024" height="1024" rx="220" fill="url(#glow)"/>
  <path fill="url(#mark)" fill-rule="evenodd" clip-rule="evenodd" d="M 304 176 H 720 A 128 128 0 0 1 848 304 V 720 A 128 128 0 0 1 720 848 H 304 A 128 128 0 0 1 176 720 V 304 A 128 128 0 0 1 304 176 Z M 320 336 H 704 A 32 32 0 0 1 736 368 V 498 C 736 577 674 640 594 640 H 570 V 744 L 512 802 L 454 744 V 640 H 430 C 350 640 288 577 288 498 V 368 A 32 32 0 0 1 320 336 Z"/>
</svg>
